<svg width="48" height="48" viewBox="0 0 48 48" fill="none" xmlns="http://www.w3.org/2000/svg">
<path d="M28.5956 10.8797C28.3258 10.5921 27.9528 10.4234 27.5587 10.4108C27.1645 10.3981 26.7815 10.5425 26.4939 10.8123V22.3065L8.92266 22.3065C8.52826 22.3065 8.15002 22.4632 7.87114 22.7421C7.59226 23.021 7.43559 23.3992 7.43559 23.7936C7.43559 24.188 7.59226 24.5663 7.87114 24.8452C8.15002 25.124 8.52826 25.2807 8.92266 25.2807L26.4939 25.2807V36.775C26.7815 37.0447 27.1645 37.1891 27.5587 37.1765C27.9528 37.1638 28.3258 36.9952 28.5956 36.7076L39.7486 24.8108C40.007 24.5352 40.1509 24.1715 40.1509 23.7936C40.1509 23.4158 40.007 23.0521 39.7486 22.7764L28.5956 10.8797Z" fill="black"/>
</svg>
