<svg width="48" height="48" viewBox="0 0 48 48" fill="none" xmlns="http://www.w3.org/2000/svg">
<path d="M10.8793 18.9908C10.5917 19.2606 10.423 19.6336 10.4104 20.0277C10.3977 20.4219 10.5422 20.8049 10.8119 21.0926H22.3062L22.3062 38.6638C22.3062 39.0582 22.4628 39.4364 22.7417 39.7153C23.0206 39.9942 23.3989 40.1508 23.7933 40.1508C24.1877 40.1508 24.5659 39.9942 24.8448 39.7153C25.1237 39.4364 25.2803 39.0582 25.2803 38.6638L25.2803 21.0926H36.7746C37.0443 20.8049 37.1888 20.4219 37.1761 20.0277C37.1635 19.6336 36.9948 19.2606 36.7072 18.9908L24.8104 7.83783C24.5348 7.57938 24.1711 7.43555 23.7933 7.43555C23.4154 7.43555 23.0517 7.57938 22.7761 7.83783L10.8793 18.9908Z" fill="black"/>
</svg>
