<svg width="48" height="48" viewBox="0 0 48 48" fill="none" xmlns="http://www.w3.org/2000/svg">
<path d="M18.9908 10.8797C19.2606 10.5921 19.6336 10.4234 20.0277 10.4108C20.4219 10.3981 20.8049 10.5425 21.0926 10.8123V22.3065L38.6638 22.3065C39.0582 22.3065 39.4364 22.4632 39.7153 22.7421C39.9942 23.021 40.1508 23.3992 40.1508 23.7936C40.1508 24.188 39.9942 24.5663 39.7153 24.8452C39.4364 25.124 39.0582 25.2807 38.6638 25.2807L21.0926 25.2807V36.775C20.8049 37.0447 20.4219 37.1891 20.0277 37.1765C19.6336 37.1638 19.2606 36.9952 18.9908 36.7076L7.83783 24.8108C7.57938 24.5352 7.43555 24.1715 7.43555 23.7936C7.43555 23.4158 7.57938 23.0521 7.83783 22.7764L18.9908 10.8797Z" fill="black"/>
</svg>
