<svg width="68" height="61" viewBox="0 0 68 61" fill="none" xmlns="http://www.w3.org/2000/svg">
<path d="M21.5694 0.0507704C25.5519 -0.52298 29.7706 3.83077 30.9856 9.83827C32.2006 15.812 30.0069 21.1445 26.0244 21.752C22.0756 22.3595 17.8231 18.0058 16.5744 11.9983C15.3256 6.02452 17.5869 0.69202 21.5694 0.0507704ZM45.7006 0.0507704C49.7169 0.69202 51.9444 6.02452 50.7631 11.9983C49.4806 18.0058 45.2619 22.3595 41.2794 21.752C37.2631 21.1445 35.0694 15.812 36.3181 9.83827C37.5331 3.83077 41.7519 -0.52298 45.7006 0.0507704ZM3.51311 15.5758C7.36061 13.922 12.5919 16.9258 15.3256 22.157C17.8906 27.4895 17.0131 33.092 13.1994 34.7458C9.38561 36.3995 4.18811 33.4295 1.52186 28.1308C-1.14439 22.832 -0.199388 17.1958 3.51311 15.5758ZM64.2631 15.5758C67.9756 17.1958 68.9206 22.832 66.2544 28.1308C63.5881 33.4295 58.3906 36.3995 54.5769 34.7458C50.7631 33.092 49.8856 27.4895 52.4506 22.157C55.1844 16.9258 60.4156 13.922 64.2631 15.5758ZM58.6269 51.9583C58.7619 55.1308 56.3319 58.6408 53.4294 59.957C47.3881 62.7245 40.2331 56.987 33.5169 56.987C26.8006 56.987 19.5781 62.9608 13.6381 59.957C10.2631 58.3033 7.93436 53.9158 8.37311 50.2708C8.98061 45.242 15.0219 42.542 18.5994 38.8633C23.3581 34.1045 26.7331 25.1608 33.5169 25.1608C40.2669 25.1608 43.8444 33.9695 48.4006 38.8633C52.1469 42.9808 58.3906 46.457 58.6269 51.9583Z" fill="#8CC5EA"/>
</svg>
