<svg width="35" height="35" viewBox="0 0 35 35" fill="none" xmlns="http://www.w3.org/2000/svg">
<path d="M14.3716 4.1038C17.2049 4.1038 19.7712 5.25285 21.6395 7.09955L18.1698 10.5672C18.0279 10.7119 17.9321 10.8953 17.8943 11.0943C17.8566 11.2933 17.8786 11.499 17.9576 11.6855C18.0367 11.872 18.1692 12.031 18.3385 12.1424C18.5078 12.2537 18.7063 12.3125 18.9089 12.3113H27.7167C28.2915 12.3113 28.7432 11.8599 28.7432 11.2854V2.48281C28.7432 1.55947 27.6346 1.10805 26.9981 1.76465L24.5344 4.22691C23.2055 2.884 21.6227 1.8187 19.8779 1.09303C18.1332 0.367362 16.2614 -0.00418062 14.3716 3.54831e-05C8.13022 3.54831e-05 2.83326 3.98069 0.862297 9.52077C0.369556 10.875 1.33451 12.3113 2.77167 12.3113C3.63396 12.3113 4.39361 11.7778 4.68104 10.9571C5.38966 8.95397 6.70189 7.21951 8.43722 5.99226C10.1726 4.76501 12.2457 4.10527 14.3716 4.1038ZM25.951 22.858C26.7723 21.75 27.4292 20.4983 27.9015 19.1646C28.3737 17.8309 27.3882 16.4151 25.9715 16.4151C25.5517 16.4135 25.1419 16.5432 24.7995 16.7861C24.4571 17.0289 24.1993 17.3727 24.0622 17.7693C23.3536 19.7724 22.0413 21.5069 20.306 22.7342C18.5707 23.9614 16.4975 24.6211 14.3716 24.6226C11.5383 24.6226 8.97199 23.4736 7.10368 21.6269L10.5734 18.1592C10.7153 18.0145 10.8111 17.8312 10.8489 17.6321C10.8866 17.4331 10.8646 17.2274 10.7856 17.0409C10.7065 16.8544 10.574 16.6954 10.4047 16.5841C10.2354 16.4727 10.037 16.4139 9.83429 16.4151H1.02654C0.451679 16.4151 0 16.8665 0 17.441V26.2436C0 27.1669 1.10867 27.6184 1.74512 26.9618L4.20883 24.4995C6.63158 26.9335 9.84816 28.4172 13.2733 28.6808C16.6984 28.9444 20.1043 27.9704 22.8714 25.9358L31.3096 34.369C32.1513 35.2103 33.5269 35.2103 34.3687 34.369C35.2104 33.5278 35.2104 32.153 34.3687 31.3117L25.951 22.858Z" fill="black"/>
</svg>
