<svg width="51" height="51" viewBox="0 0 51 51" fill="none" xmlns="http://www.w3.org/2000/svg">
<path fill-rule="evenodd" clip-rule="evenodd" d="M25.1774 11.5398C22.6153 11.5404 20.1052 12.2627 17.9346 13.6239C15.764 14.9852 14.0208 16.9303 12.9047 19.2365C11.7885 21.5427 11.3446 24.1166 11.6237 26.6635C11.9029 29.2103 12.8938 31.627 14.4829 33.6367C16.0721 35.6464 18.1952 37.1678 20.6091 38.0266C23.023 38.8854 25.6299 39.0468 28.1313 38.4924C30.6327 37.938 32.9274 36.6903 34.7523 34.892C36.5773 33.0938 37.8589 30.8178 38.4501 28.3249H27.2755C26.4408 28.3249 25.6403 27.9933 25.0501 27.4031C24.4599 26.8129 24.1283 26.0124 24.1283 25.1777C24.1283 24.343 24.4599 23.5425 25.0501 22.9523C25.6403 22.3621 26.4408 22.0305 27.2755 22.0305H41.9624C42.7971 22.0305 43.5976 22.3621 44.1878 22.9523C44.778 23.5425 45.1096 24.343 45.1096 25.1777C45.1096 29.7867 43.5122 34.2534 40.5895 37.8172C37.6668 41.3811 33.5992 43.8219 29.0794 44.7242C24.5595 45.6265 19.8666 44.9345 15.7995 42.766C11.7324 40.5975 8.54255 37.0865 6.77288 32.8307C5.00321 28.5749 4.76312 23.8373 6.09348 19.4244C7.42384 15.0115 10.2424 11.196 14.0694 8.62747C17.8964 6.0589 22.4953 4.896 27.0833 5.33672C31.6712 5.77745 35.9647 7.79455 39.2327 11.0447C39.5257 11.3362 39.7585 11.6826 39.9177 12.064C40.0768 12.4455 40.1593 12.8545 40.1604 13.2679C40.1614 13.6812 40.0811 14.0907 39.9239 14.473C39.7667 14.8553 39.5358 15.2028 39.2443 15.4959C38.9528 15.7889 38.6064 16.0216 38.2249 16.1808C37.8435 16.3399 37.4344 16.4224 37.0211 16.4235C36.1863 16.4257 35.3849 16.0961 34.7931 15.5074C32.2405 12.9625 28.7818 11.5354 25.1774 11.5398Z" fill="black"/>
</svg>
