<svg width="102" height="96" viewBox="0 0 102 96" fill="none" xmlns="http://www.w3.org/2000/svg">
<path fill-rule="evenodd" clip-rule="evenodd" d="M79.3507 31.515C88.8903 29.8519 95.1009 23.112 94.8792 17.9815C94.5232 9.69869 88.5655 5.50818 75.6787 5.39342L75.5131 5.39262C74.8207 5.39044 74.1535 5.13253 73.6396 4.66841C73.1258 4.2043 72.8016 3.56671 72.7292 2.87809C72.6945 2.5522 72.7267 2.22266 72.8236 1.9096C72.9206 1.59653 73.0803 1.30651 73.2931 1.05722C73.5058 0.80794 73.7671 0.604626 74.0611 0.459691C74.355 0.314756 74.6754 0.23124 75.0027 0.21424L75.4715 0.188221C79.3071 -0.0356904 83.5462 -0.156639 85.8305 0.395822C95.355 2.70249 100.62 8.47759 101.02 17.7162C101.338 25.0634 95.8387 32.2169 88.1204 37.8565L87.8953 38.0171C89.371 40.629 90.3098 43.5441 90.7118 46.7623C92.1173 56.0784 90.7399 61.8619 91.7557 65.7012C92.7736 69.5426 97.4766 71.6684 99.3165 75.9623C101.156 80.2562 100.802 82.1313 100.24 85.5024C99.9086 87.5022 99.1686 90.4226 98.02 94.2637C97.8931 94.6877 97.6324 95.0591 97.2768 95.3225C96.9211 95.586 96.4898 95.7271 96.0472 95.7249L89.2371 95.692C88.1058 95.6866 87.193 94.765 87.1985 93.6336L87.2035 92.6033C87.2047 92.3324 87.2598 92.0645 87.3653 91.815C87.4708 91.5655 87.6248 91.3394 87.8183 91.1498C88.0118 90.9602 88.241 90.8109 88.4926 90.7105C88.7442 90.6101 89.0132 90.5606 89.2841 90.5648C90.2039 90.5814 90.9889 90.3427 91.6391 89.8489C93.2836 88.6043 93.4223 87.9059 93.434 85.4695C93.4419 83.8453 92.8585 82.2081 91.684 80.5579C86.9514 77.4481 82.9933 75.0168 79.4988 73.2261C79.1207 76.784 78.3959 80.017 77.3246 82.925C76.1987 85.9823 74.2492 89.8693 71.4762 94.586C71.2952 94.896 71.0357 95.1528 70.7237 95.3304C70.4118 95.508 70.0585 95.6002 69.6996 95.5977L64.3096 95.5717C63.1985 95.5663 62.2937 94.677 62.2728 93.5658L62.253 92.6364C62.2413 92.1004 62.4401 91.5811 62.8069 91.1901C63.1736 90.7991 63.679 90.5674 64.2147 90.5448L67.0335 90.425C67.8661 90.3887 68.5939 89.8528 68.8745 89.0682C69.8206 86.4222 70.217 83.8193 70.0637 81.2596C69.8891 78.3725 68.9479 74.4311 67.2399 69.4355C60.0483 69.3361 45.4432 72.3869 42.0822 72.6495C41.29 72.7116 40.4765 72.7037 39.6419 72.6256C38.9559 74.7456 38.5228 76.9393 38.3517 79.1609C38.1313 81.8495 38.0896 86.5781 38.2266 93.3466C38.232 93.6199 38.1827 93.8915 38.0815 94.1454C37.9804 94.3993 37.8295 94.6304 37.6376 94.8251C37.4458 95.0198 37.2169 95.1741 36.9645 95.279C36.7121 95.3839 36.4413 95.4372 36.168 95.4358L30.5699 95.4087C29.4386 95.4033 28.5259 94.4817 28.5313 93.3503L28.5381 91.9443C28.5436 90.8129 29.4652 89.9002 30.5965 89.9057L31.4591 89.9098C31.779 89.9113 32.0944 89.8356 32.3787 89.6892C32.6631 89.5428 32.9079 89.3299 33.0923 89.0686C33.2768 88.8074 33.3956 88.5055 33.4384 88.1885C33.4813 87.8716 33.4471 87.549 33.3387 87.2481C32.293 84.3724 31.4823 81.4167 30.9147 78.4099L24.1072 94.1351C23.7803 94.887 23.0365 95.3724 22.2163 95.3684L14.7819 95.3325C13.6506 95.327 12.7358 94.4054 12.7413 93.2741L12.7464 92.2276C12.7512 91.2337 13.4684 90.3866 14.447 90.2196L17.9895 89.6084C18.4343 89.5297 18.8435 89.3095 19.1501 88.9756C20.5948 87.4 21.531 85.4335 21.9585 83.0759C23.0129 77.2606 23.6664 76.6334 22.0167 71.0293C21.4801 69.1984 17.4846 67.3972 14.9621 59.2858C13.3453 54.094 11.9319 45.2808 10.7219 32.8463C10.6784 32.3978 10.4882 31.9762 10.1808 31.6467C9.8734 31.3173 9.46596 31.0984 9.02157 31.0239L5.08926 30.3685C4.48367 30.2666 3.95412 29.8984 3.64759 29.3656L0.5584 23.9687L0.474204 23.8329C0.171177 23.4132 0.00563276 22.9098 0.000338011 22.3922C0.00225002 21.9962 0.107255 21.588 0.315353 21.1674C0.426878 20.943 0.573962 20.7457 0.756608 20.5756L4.84582 16.7709C5.12994 16.5036 5.33564 16.1612 5.43444 15.7839L5.66916 14.8698C5.87916 14.0567 6.33523 13.3255 6.97223 12.7791C8.20157 11.7304 9.1087 11.0277 9.6936 10.6709C10.423 10.2273 11.9354 9.69856 14.2307 9.08471C13.0749 7.4508 12.4434 6.02279 12.3362 4.80068C12.1733 2.96751 12.0366 1.15266 12.7784 1.08553C13.2756 1.04214 14.5262 2.41388 16.5303 5.20074C16.3897 1.69019 16.7521 0.141724 17.6174 0.555343C18.4828 0.968962 20.3771 3.34384 23.3004 7.67998L26.1573 10.9666C27.545 12.5629 28.5625 14.4464 29.1369 16.4822C30.5643 21.5397 31.9273 25.1821 33.2256 27.4093C35.5479 31.3843 38.3951 36.279 47.728 35.6008C57.0588 34.9246 60.2053 33.0509 66.4242 32.1031C69.6074 31.6345 72.8136 31.3391 76.0288 31.2181C77.1443 31.171 78.2612 31.2708 79.3507 31.515Z" fill="#A7D8F3"/>
</svg>
