<svg width="101" height="112" viewBox="0 0 101 112" fill="none" xmlns="http://www.w3.org/2000/svg">
<path d="M54.8623 17.8524L81.1199 32.4638L57.0857 -7.61063e-05C53.0473 5.23485 52.2117 12.0625 54.8623 17.8524ZM42.5707 70.0666C45.7812 70.0821 48.447 72.7222 48.4305 76.1333C48.4153 79.2878 45.7241 81.902 42.243 81.8852C39.0326 81.8697 36.3714 79.2296 36.3867 76.0752C36.6679 72.9267 39.3556 70.0511 42.5754 70.0667L42.5707 70.0666ZM24.6827 4.6639L98.37 44.4233C100.242 45.2209 100.764 47.328 99.9524 49.158C99.8339 49.5324 99.6246 49.8716 99.3432 50.1454C99.0618 50.4193 98.717 50.6192 98.3396 50.7275C92.752 54.1249 86.5618 56.413 80.1079 57.4665L64.4286 88.39C64.4286 88.39 59.5609 99.1367 46.1981 94.8677C51.843 89.3792 58.5587 84.4185 58.5993 76.0144C58.6424 67.083 51.4485 59.9553 42.3491 59.9114C33.2497 59.8674 25.9827 66.9253 25.9395 75.8567C25.8863 86.888 37.1093 91.6739 43.2321 99.3192C45.8869 103.27 45.5956 108.523 42.3639 111.924C34.9053 104.533 20.2485 91.8538 14.1283 83.6813C10.94 79.5046 9.09764 74.4569 8.84575 69.2085C9.43353 57.6525 17.5125 47.71 28.7702 44.3485C32.2564 43.3154 35.7387 43.0709 39.2198 43.0877C44.0342 43.3723 48.847 44.9728 53.1193 47.3546C59.793 51.0687 62.7413 50.2943 67.31 46.3732C69.994 44.2862 72.9727 37.2076 68.4353 35.6084C66.9514 35.125 65.4296 34.7664 63.886 34.5365C55.6015 32.9193 40.8728 31.2802 35.5344 28.3612C26.9852 23.5928 21.1479 13.8398 24.6827 4.66857L24.6827 4.6639ZM5.67291 40.1445C8.61738 40.1587 11.3076 42.5796 11.2924 45.7107L11.2657 51.245L5.61944 51.2177C2.67498 51.2035 -0.0152057 48.7826 -0.00010883 45.6562C0.0138614 42.763 2.48113 40.1291 5.67291 40.1445Z" fill="#A7D8F3"/>
</svg>
