<svg width="99" height="102" viewBox="0 0 99 102" fill="none" xmlns="http://www.w3.org/2000/svg">
<path fill-rule="evenodd" clip-rule="evenodd" d="M80.6746 38.3177C83.7276 36.9991 86.0496 34.7517 88.2282 32.4955C90.7114 29.9235 90.7594 26.6853 90.7676 24.9903C90.7806 22.2953 88.2595 20.1578 84.1448 20.039C81.9653 19.9759 80.6313 20.5129 78.8087 21.8274C77.5032 22.7666 74.4397 25.8468 75.7871 28.3847C75.8565 28.5171 75.9722 28.6772 76.1343 28.8652C76.2941 29.0532 76.3827 29.2915 76.3845 29.5383C76.3863 29.785 76.3011 30.0245 76.1439 30.2148C75.9861 30.4049 75.7603 30.526 75.5146 30.5524C75.2689 30.5787 75.0226 30.5083 74.8281 30.3559L74.6147 30.1892C71.9377 28.1237 70.4788 27.353 70.4935 24.3126C70.5211 18.5913 78.0972 13.1308 85.3873 13.3417C92.6693 13.5527 98.3147 18.8387 98.2851 24.97C98.2689 28.3236 96.1085 33.0709 92.5959 36.7106C90.3504 39.039 87.6435 40.8728 84.6484 42.0946C84.8368 42.408 85.0305 42.7477 85.2294 43.1136C87.1918 46.7313 86.9311 47.1684 87.1619 51.6768C87.3906 56.1871 86.0183 64.2413 86.5103 68.2155C87.0042 72.1877 89.5657 72.6426 90.1156 75.5059C90.4637 77.3204 91.3126 85.1901 92.6623 99.1149C92.6904 99.3968 92.6589 99.6814 92.5698 99.9503C92.4808 100.219 92.3362 100.466 92.1454 100.676C91.9547 100.885 91.722 101.052 91.4625 101.166C91.2031 101.279 90.9226 101.337 90.6394 101.336L86.4838 101.315C85.9494 101.312 85.4382 101.097 85.0621 100.717C84.6861 100.337 84.4758 99.8239 84.4773 99.2895L84.4822 98.2855C84.4852 97.6491 84.7871 97.0506 85.2981 96.6732L85.9428 96.1935C86.2462 95.9684 86.4804 95.6629 86.6189 95.3114C86.7574 94.96 86.7945 94.5768 86.7262 94.2053C85.6502 88.3171 84.6963 84.7709 83.8643 83.5669C83.2504 82.675 80.4655 81.213 76.879 78.3875C76.2363 77.8807 75.0832 76.8031 73.4198 75.1546C73.286 75.021 73.1174 74.9277 72.9332 74.8852C72.749 74.8426 72.5566 74.8527 72.3778 74.9141C72.199 74.9756 72.0411 75.0859 71.9219 75.2327C71.8027 75.3794 71.7272 75.5567 71.7037 75.7443C71.3876 78.1738 71 80.2205 70.5407 81.8843C69.9856 83.8911 68.2842 89.1201 65.4365 97.5713C65.3011 97.9741 65.0421 98.3241 64.6963 98.5712C64.3506 98.8184 63.9357 98.9502 63.5106 98.9479L58.2217 98.9223C57.7429 98.9195 57.2847 98.7268 56.9478 98.3866C56.6108 98.0464 56.4226 97.5864 56.4244 97.1075L56.4249 96.9863C56.4267 96.5129 56.5947 96.055 56.8996 95.6928C57.2045 95.3306 57.6269 95.0869 58.0931 95.0044L60.3639 94.5992C62.0209 88.6596 62.7524 84.3067 62.5583 81.5407C62.4223 79.5844 61.112 77.3033 59.7998 73.3372C59.5264 72.513 59.1453 70.8276 58.6565 68.281C58.6305 68.1457 58.5771 68.0171 58.4995 67.9032C58.4219 67.7892 58.3219 67.6924 58.2054 67.6186C58.089 67.5448 57.9587 67.4956 57.8226 67.474C57.6865 67.4525 57.5474 67.459 57.4138 67.4932L43.9363 70.9151C43.788 70.9526 43.6501 71.0233 43.5331 71.1218C43.4161 71.2204 43.323 71.3442 43.2609 71.484C43.1987 71.6238 43.1691 71.7759 43.1743 71.9287C43.1795 72.0816 43.2194 72.2313 43.2909 72.3666L43.6052 72.9661C44.2057 74.1044 44.5148 75.3746 44.5086 76.6615L44.4173 95.5707C44.4142 96.199 44.1184 96.7915 43.6176 97.173L40.7849 99.321C40.4302 99.5908 39.9962 99.7357 39.5505 99.7332L37.5243 99.7234C37.2588 99.7221 36.9962 99.6686 36.7514 99.5657C36.5067 99.4629 36.2846 99.3128 36.0979 99.1241C35.9112 98.9354 35.7635 98.7117 35.6633 98.4659C35.563 98.2201 35.5123 97.9569 35.5138 97.6914L35.5188 96.6611C35.5223 95.9278 35.9195 95.2529 36.5617 94.8984L38.0201 94.0933C38.3609 93.9058 38.6402 93.6239 38.8246 93.2814C39.0091 92.939 39.0907 92.5506 39.0598 92.1629C38.844 89.4318 38.5699 87.3544 38.2373 85.9305C37.897 84.4608 37.0658 81.8398 35.7439 78.0677C35.6896 77.9124 35.5981 77.7728 35.4776 77.6609C35.357 77.5491 35.2109 77.4683 35.052 77.4258C34.8931 77.3832 34.7263 77.38 34.5659 77.4166C34.4055 77.4532 34.2565 77.5284 34.1318 77.6356L33.7362 77.9731C32.7442 78.8229 31.5354 79.3767 30.2455 79.5786L17.6054 81.5378C17.4255 81.5657 17.2565 81.6417 17.1162 81.7578C16.9759 81.8738 16.8697 82.0257 16.8086 82.1972C16.7475 82.3687 16.734 82.5535 16.7693 82.7321C16.8046 82.9107 16.8876 83.0764 17.0094 83.2117L18.3457 84.697C18.6833 85.0704 18.8668 85.5561 18.8644 86.0592L18.858 87.3804C18.8568 87.6509 18.8013 87.9183 18.6949 88.167C18.5884 88.4156 18.433 88.6403 18.238 88.8278C18.0431 89.0153 17.8124 89.1617 17.5598 89.2583C17.3072 89.355 17.0378 89.4 16.7674 89.3906L15.1111 89.3341C14.8098 89.3239 14.5147 89.2465 14.2472 89.1075C13.9798 88.9685 13.7468 88.7714 13.5654 88.5306L11.4897 85.7852C11.2226 85.4316 11.0792 85 11.0815 84.5569L11.1009 80.5407C11.1043 79.8397 11.4711 79.1889 12.0688 78.8241C20.7236 73.5324 25.4167 70.6055 26.148 70.0433C26.9064 69.4611 27.2263 68.4835 27.1077 67.1105C25.7218 62.9279 23.4764 61.4382 22.4762 58.9606C21.476 56.483 19.6363 48.785 18.7213 45.8269C16.8813 39.8784 15.256 36.7291 14.8181 35.7875C13.8344 33.6736 12.0823 33.3662 10.2332 32.63C8.3842 31.8937 4.86243 31.9858 2.58121 29.9646C0.302018 27.9415 0.522266 25.8414 -2.87124e-05 23.552L0.0134821 20.754C0.0188767 19.6368 0.930325 18.7361 2.04751 18.7415L7.53442 18.768C8.27584 18.7716 8.9586 18.3708 9.31731 17.72C9.94913 16.5729 10.9551 15.4794 12.3353 14.4395C14.1723 13.0633 16.2638 12.0647 18.489 11.5015C18.0144 5.20809 18.0315 1.65452 18.5405 0.840794C19.0495 0.0270646 20.4487 1.31063 22.7382 4.69149C23.086 0.725365 23.7361 -0.726087 24.6886 0.337132C25.5768 1.33135 27.1001 4.93478 29.2588 11.1474C29.5417 11.9569 29.9522 12.7225 30.4742 13.4059C31.387 14.5982 32.2097 16.0231 32.9425 17.6806C34.3354 20.8308 35.9402 29.0489 38.8319 33.1014C41.7215 37.1539 43.4189 37.4934 47.6173 38.2612C50.4069 38.7716 60.0409 37.2302 67.9273 36.9612C74.0012 36.7521 78.8811 37.798 79.7609 38.0285C80.077 38.1108 80.3816 38.2086 80.6746 38.3177Z" fill="#A7D8F3"/>
</svg>
