<svg width="112" height="93" viewBox="0 0 112 93" fill="none" xmlns="http://www.w3.org/2000/svg">
<path d="M32.6942 0.0110863C29.2189 -0.128852 25.3927 1.04407 20.2224 3.45255C14.7216 5.19342 11.5567 9.95463 18.0124 9.98275L17.8353 14.185L13.7575 15.7275L13.5867 19.81C13.5867 19.81 12.9348 24.5615 18.1188 24.3031C17.4381 24.4588 16.8665 24.7875 17.6236 25.552C19.0188 26.9597 20.8675 26.504 27.5626 26.6918C34.2582 26.88 34.9437 34.3313 34.9437 34.3313C34.9437 34.3313 36.3888 46.5431 36.1078 58.4338C28.8716 54.5382 21.645 51.0859 19.39 51.5677C14.4017 52.6336 10.1203 57.531 14.3425 64.6224C18.2007 71.1033 24.746 75.7393 31.3441 79.9227C27.6087 85.8835 21.1564 90.6629 9.72794 87.589C3.53777 87.7448 -4.87306 91.8526 3.55065 92.1318C19.8332 93.5337 31.7159 92.8263 38.8722 85.1395C38.9323 85.0822 38.9837 85.0222 39.0429 84.9652C39.0227 84.9857 39.0043 85.0114 38.9841 85.0313C49.1558 91.4296 61.8441 93.4583 73.5582 90.926C74.1321 90.7418 75.9906 90.5089 75.8353 90.2863C75.9314 90.2968 76.0121 90.3124 76.109 90.3238C76.1629 90.0184 87.7836 91.6284 96.3773 88.1926C104.704 84.8639 110.158 78.5822 111.339 72.04C116.192 45.1536 89.4532 42.888 85.9529 41.7788L77.9373 39.5643C76.4375 35.761 74.4291 32.0352 71.8563 27.9595C70.3234 25.5247 68.4024 23.3572 66.1695 21.5427C66.1748 21.5471 66.1991 21.5638 66.2039 21.5682C66.2039 21.5682 67.002 19.0879 70.006 16.5284C70.6123 16.0496 80.7182 8.40455 98.9903 16.2831L100.221 28.7677L108.542 28.3777L107.619 11.45C104.695 7.98971 79.779 -2.49023 61.6845 11.1758C59.026 13.4558 57.3511 16.6389 57.3511 16.6389C57.3694 16.6442 57.3938 16.6596 57.4121 16.6698C54.3786 15.5716 51.3536 14.9582 48.6043 14.6244C48.6023 14.6142 48.6006 14.6039 48.5992 14.5934C48.5992 14.5934 45.1458 4.9416 38.7855 1.69788C36.7397 0.654268 34.7792 0.0975816 32.6942 0.0132699L32.6942 0.0110863ZM50.2197 45.9299C52.9037 50.487 54.8576 54.5645 55.6936 59.6071C55.2552 62.6643 54.6013 65.6894 53.6634 68.5397C53.6634 68.5397 51.3651 67.1337 48.0653 65.1866C48.6936 61.3368 49.1289 57.2044 49.6428 52.7021C49.8167 50.5114 50.0183 48.2038 50.2197 45.9299ZM80.2948 47.691C80.314 47.795 80.3419 47.8974 80.3597 48.0018C80.4696 48.5849 80.5588 49.1881 80.6595 49.7729C83.5515 50.6014 86.4567 51.4115 89.3487 52.2404C89.3487 52.2404 103.662 55.1011 101.406 69.5385C99.2837 83.131 78.7628 81.9584 78.8375 81.5042C81.37 66.158 81.9023 56.1363 80.2948 47.691Z" fill="#A7D8F3"/>
</svg>
