<svg width="99" height="101" viewBox="0 0 99 101" fill="none" xmlns="http://www.w3.org/2000/svg">
<path d="M0.429831 12.1185C-4.54504 36.368 35.257 20.3953 36.1592 23.812C36.6748 25.7613 1.91117 31.4994 0.282186 44.5066C-3.46945 74.4559 70.5303 44.9989 71.0904 46.7953C72.2746 50.6946 23.2259 56.7137 38.1573 81.1316C46.7733 95.2163 63.2343 88.2523 74.0165 88.6106C79.7244 97.9128 88.4984 101.914 94.9643 99.2113C101.036 96.6814 98.2497 89.2526 95.3732 82.4797L92.2506 85.8988L93.9652 79.6293C85.2169 65.7626 54.0526 78.0803 52.7984 75.0775C50.5928 69.7953 100.133 66.2284 92.3821 40.5546C86.1382 19.9192 19.5866 44.8404 19.5588 41.5373C19.5371 36.9655 60.756 30.7117 56.2752 20.9562C48.8506 4.77292 10.2497 29.6585 7.10629 13.3713C5.98588 7.57799 24.2281 3.19284 22.486 1.5745C16.846 -3.67843 1.82314 5.33768 0.429831 12.1185ZM77.9972 79.6178L85.8143 87.0052L76.3124 84.2469L77.9972 79.6178Z" fill="#A7D8F3"/>
</svg>
