<svg width="85" height="99" viewBox="0 0 85 99" fill="none" xmlns="http://www.w3.org/2000/svg">
<path d="M81.3708 8.84412e-05C79.5115 -0.00888939 78.0609 1.42341 78.0523 3.2236C78.0436 5.02379 79.4803 6.47004 81.3395 6.47901C83.1988 6.48799 84.6494 5.05569 84.658 3.2555C84.6667 1.45531 83.23 0.00906627 81.3708 8.84412e-05ZM44.9225 5.8285C46.3494 9.30023 48.6438 9.79035 51.699 11.2794C49.227 15.8566 46.5704 22.4279 42.1214 24.2001C27.9417 29.8407 20.4707 36.8481 17.4532 45.6706C14.5466 54.1874 15.83 64.7369 20.2088 77.4887C33.7214 78.6257 48.044 79.6355 55.0722 78.2695C54.7925 77.3057 53.8114 76.6228 53.2006 76.2918C46.977 74.1181 43.3253 73.8598 37.5737 73.5914L37.8244 71.4928C38.3264 67.2079 37.9587 61.8032 36.2049 58.0762C35.3171 56.2126 34.1427 54.807 32.6157 53.9465C31.0886 53.0861 29.1657 52.6831 26.4071 53.1947L25.7259 49.2979C28.6814 48.7872 32.1574 49.1977 34.5571 50.5217C36.9349 51.8675 38.6308 53.9975 39.7567 56.3872C41.7272 60.5309 42.1407 65.4983 41.8569 69.9154C44.0436 70.0572 45.9893 70.2854 47.7159 70.5781C51.948 63.8832 55.8729 57.4056 56.4517 50.7805C53.4374 49.891 49.376 48.4059 48.9749 45.4072C48.405 41.1171 49.8099 35.5679 53.2551 33.2878C53.007 39.3676 52.2682 42.8857 52.6995 44.1565C53.9567 46.5468 59.3111 47.5132 61.4524 48.0048L61.4523 48.0267C65.2532 49.095 68.4225 49.5915 69.0372 53.6631C73.0494 47.2296 65.935 43.8048 61.1766 41.7038L61.1608 40.435C61.12 35.2944 62.4055 31.8227 64.1698 28.8344C65.9341 25.8681 68.0679 23.3848 70.0994 19.4135L70.0995 19.3916C68.0448 19.0974 65.8562 19.3493 64.1705 19.6474C65.4383 15.3006 69.2702 14.4813 72.6306 16.1665C73.9299 14.3572 75.5816 12.0619 78.1088 9.63952C75.3408 7.57218 73.7775 5.15631 74.1855 2.20091C68.0645 1.42764 61.6348 1.16692 56.9826 4.27025L56.1115 3.45233C52.6963 -0.473046 42.8036 0.697566 44.9225 5.8285ZM59.779 4.98809C60.6455 6.7247 63.0244 7.83645 66.1514 8.05497C64.3946 9.46611 61.6115 10.5311 59.5182 9.16914C57.9264 8.13119 58.7226 6.30637 59.779 4.98809ZM14.5018 72.5176C11.3049 73.2021 6.01409 74.0078 3.62912 75.9649C1.76206 77.5746 0.320626 80.28 0.0546418 82.8161C-0.21353 85.3522 0.46711 87.5429 2.83496 89.1292C12.3347 95.4967 22.1813 94.8224 31.0303 92.3496C39.8794 89.855 47.5573 85.2985 57.1713 87.4886C59.006 88.0443 60.5986 88.9269 60.3262 90.9818C60.2357 91.5938 59.993 92.0301 59.7287 92.4007C57.5956 94.7528 52.9511 96.2397 52.3565 97.068C50.9469 99.0736 59.8343 97.7166 62.2076 95.4531C63.1307 94.5389 63.9931 92.6181 64.1769 90.8035C64.3606 88.9888 63.9087 87.4555 63.1244 86.7955C60.6847 84.6838 57.8688 83.4671 54.4347 83.4505C51.0007 83.4121 46.9959 83.7865 42.7255 84.8158C34.1628 86.8744 24.4102 90.7427 14.8391 88.7497C11.1242 87.9881 8.8529 87.2334 7.46812 85.4549C6.76802 84.5766 6.51907 83.1317 6.94192 82.0838C8.58755 78.7669 13.1181 78.22 15.9208 77.6429C15.4034 76.0655 14.9319 74.0508 14.5018 72.5176Z" fill="#A7D8F3"/>
</svg>
