<svg width="185" height="67" viewBox="0 0 185 67" fill="none" xmlns="http://www.w3.org/2000/svg">
<path d="M177.025 5.33447C178.023 5.33704 183.718 15.7789 184.074 17.2192C184.264 21.6307 184.431 25.5695 184.573 29.0356C184.716 32.4569 184.811 35.4959 184.858 38.1519C184.953 40.7629 185 43.0364 185 44.9722V49.7661C184.953 52.8723 184.716 54.4037 184.479 55.394C184.099 56.7895 183.505 58.7027 182.508 60.0981C181.558 61.4936 180.348 62.7317 178.876 63.812C177.404 64.9373 175.695 65.7923 173.749 66.3774C171.85 67.0076 169.666 67.0985 167.388 66.9185C165.156 66.7382 161.585 64.8288 158.653 60.7954C157.606 59.3549 156.498 57.2526 154.096 56.1138C152.577 55.3936 148.4 55.7536 148.399 52.1528C148.399 48.5515 155.262 48.1685 158.273 51.4321C160.267 53.5929 160.932 54.313 162.831 57.5542C163.591 58.9947 164.138 59.7607 165.109 60.7954C167.563 63.4103 172.752 61.4938 174.177 60.5034C175.363 59.6482 176.36 58.2748 177.167 56.3843C177.832 54.7637 178.355 52.4901 178.734 49.564C179.114 46.6379 179.043 42.7888 178.521 38.0171C177.666 40.8081 176.503 42.9466 175.031 44.4321C173.56 45.9177 172.088 46.9981 170.616 47.6733C168.907 48.4836 167.127 48.9115 165.275 48.9565C162.807 48.8665 160.695 48.5737 158.938 48.0786C157.182 47.5384 155.734 46.8177 154.595 45.9175C153.455 45.0171 152.553 43.9591 151.889 42.7437C151.272 41.4832 150.82 40.0877 150.535 38.5571C150.25 37.0266 150.108 35.4959 150.108 33.9653V29.5767C150.156 28.2263 150.18 27.0105 150.18 25.9302C150.18 24.8048 150.061 23.9042 149.823 23.229C149.538 22.5537 149.158 21.8779 148.684 21.2026C148.304 20.6175 147.782 19.9871 147.117 19.312C146.405 18.5918 145.574 17.9168 144.625 17.2866C145.361 15.7785 151.261 5.33447 152.197 5.33447C153.134 5.33699 158.724 15.7787 159.294 17.2866C158.947 18.213 159.009 18.0298 158.725 18.9751C158.44 19.8754 158.155 21.0007 157.87 22.3511C157.585 23.6564 157.324 25.1193 157.087 26.7397C156.897 28.3153 156.802 29.8917 156.802 31.4673C156.849 32.9977 157.063 34.4606 157.442 35.856C157.822 37.2065 158.559 38.692 159.413 39.5474C161.217 41.303 162.689 41.9783 164.065 42.3384C165.489 42.6984 166.723 42.6536 167.768 42.2036C168.812 41.7535 169.666 41.0783 170.331 40.1782C170.996 39.2779 171.471 38.4445 171.756 37.6792C172.468 35.6085 172.895 33.4252 173.037 31.1294C173.132 29.1488 172.966 26.943 172.539 24.5122C172.112 22.0813 171.091 19.6045 169.477 17.0835C170.426 15.0572 176.029 5.33447 177.025 5.33447Z" fill="black"/>
<path d="M177.025 5.33447C178.023 5.33704 183.718 15.7789 184.074 17.2192C184.264 21.6307 184.431 25.5695 184.573 29.0356C184.716 32.4569 184.811 35.4959 184.858 38.1519C184.953 40.7629 185 43.0364 185 44.9722V49.7661C184.953 52.8723 184.716 54.4037 184.479 55.394C184.099 56.7895 183.505 58.7027 182.508 60.0981C181.558 61.4936 180.348 62.7317 178.876 63.812C177.404 64.9373 175.695 65.7923 173.749 66.3774C171.85 67.0076 169.666 67.0985 167.388 66.9185C165.156 66.7382 161.585 64.8288 158.653 60.7954C157.606 59.3549 156.498 57.2526 154.096 56.1138C152.577 55.3936 148.4 55.7536 148.399 52.1528C148.399 48.5515 155.262 48.1685 158.273 51.4321C160.267 53.5929 160.932 54.313 162.831 57.5542C163.591 58.9947 164.138 59.7607 165.109 60.7954C167.563 63.4103 172.752 61.4938 174.177 60.5034C175.363 59.6482 176.36 58.2748 177.167 56.3843C177.832 54.7637 178.355 52.4901 178.734 49.564C179.114 46.6379 179.043 42.7888 178.521 38.0171C177.666 40.8081 176.503 42.9466 175.031 44.4321C173.56 45.9177 172.088 46.9981 170.616 47.6733C168.907 48.4836 167.127 48.9115 165.275 48.9565C162.807 48.8665 160.695 48.5737 158.938 48.0786C157.182 47.5384 155.734 46.8177 154.595 45.9175C153.455 45.0171 152.553 43.9591 151.889 42.7437C151.272 41.4832 150.82 40.0877 150.535 38.5571C150.25 37.0266 150.108 35.4959 150.108 33.9653V29.5767C150.156 28.2263 150.18 27.0105 150.18 25.9302C150.18 24.8048 150.061 23.9042 149.823 23.229C149.538 22.5537 149.158 21.8779 148.684 21.2026C148.304 20.6175 147.782 19.9871 147.117 19.312C146.405 18.5918 145.574 17.9168 144.625 17.2866C145.361 15.7785 151.261 5.33447 152.197 5.33447C153.134 5.33699 158.724 15.7787 159.294 17.2866C158.947 18.213 159.009 18.0298 158.725 18.9751C158.44 19.8754 158.155 21.0007 157.87 22.3511C157.585 23.6564 157.324 25.1193 157.087 26.7397C156.897 28.3153 156.802 29.8917 156.802 31.4673C156.849 32.9977 157.063 34.4606 157.442 35.856C157.822 37.2065 158.559 38.692 159.413 39.5474C161.217 41.303 162.689 41.9783 164.065 42.3384C165.489 42.6984 166.723 42.6536 167.768 42.2036C168.812 41.7535 169.666 41.0783 170.331 40.1782C170.996 39.2779 171.471 38.4445 171.756 37.6792C172.468 35.6085 172.895 33.4252 173.037 31.1294C173.132 29.1488 172.966 26.943 172.539 24.5122C172.112 22.0813 171.091 19.6045 169.477 17.0835C170.426 15.0572 176.029 5.33447 177.025 5.33447Z" stroke="black"/>
<path d="M143.415 0C143.178 1.30541 142.988 2.56586 142.846 3.78125C142.703 4.99671 142.584 6.12281 142.489 7.1582C142.394 8.32848 142.347 9.45392 142.347 10.5342C142.109 12.74 141.967 15.1488 141.92 17.7598C141.92 20.3254 141.944 22.9361 141.991 25.5918C142.039 28.2477 142.133 30.8366 142.275 33.3574C142.418 35.8783 142.561 38.1744 142.703 40.2451C142.893 42.2709 143.059 44.0048 143.201 45.4453C143.391 46.8402 143.534 47.7402 143.629 48.1455C143.819 48.8208 144.008 49.4743 144.198 50.1045C144.388 50.6446 144.603 51.2069 144.84 51.792C145.077 52.4222 145.362 52.9182 145.694 53.2783H138.787C138.17 53.2783 137.576 53.3007 137.007 53.3457C136.485 53.3907 135.938 53.4355 135.368 53.4805C134.799 53.5255 134.276 53.5926 133.802 53.6826C134.276 53.0074 134.657 52.3772 134.941 51.792C135.226 51.2069 135.463 50.7117 135.653 50.3066C135.843 49.8115 135.986 49.3612 136.081 48.9561C136.129 48.6858 136.152 47.8979 136.152 46.5928C136.152 45.2873 136.105 43.6438 136.01 41.6631C135.962 39.6824 135.891 37.4543 135.796 34.9785C135.748 32.5026 135.653 29.981 135.511 27.415C135.416 24.8492 135.298 22.3507 135.155 19.9199C135.06 17.4891 134.965 15.3058 134.87 13.3701C134.775 11.3894 134.68 9.76829 134.585 8.50781C134.49 7.24833 134.42 6.52821 134.372 6.34766C134.277 6.07755 134.11 5.80721 133.873 5.53711C133.398 4.99696 132.591 4.47952 131.452 3.98438C133.873 3.39915 135.725 2.92654 137.007 2.56641C137.766 2.38637 138.43 2.20542 139 2.02539C139.522 1.84536 140.044 1.66538 140.566 1.48535C140.994 1.30528 141.469 1.10302 141.991 0.87793C142.513 0.607864 142.988 0.315069 143.415 0Z" fill="black"/>
<path d="M143.415 0C143.178 1.30541 142.988 2.56586 142.846 3.78125C142.703 4.99671 142.584 6.12281 142.489 7.1582C142.394 8.32848 142.347 9.45392 142.347 10.5342C142.109 12.74 141.967 15.1488 141.92 17.7598C141.92 20.3254 141.944 22.9361 141.991 25.5918C142.039 28.2477 142.133 30.8366 142.275 33.3574C142.418 35.8783 142.561 38.1744 142.703 40.2451C142.893 42.2709 143.059 44.0048 143.201 45.4453C143.391 46.8402 143.534 47.7402 143.629 48.1455C143.819 48.8208 144.008 49.4743 144.198 50.1045C144.388 50.6446 144.603 51.2069 144.84 51.792C145.077 52.4222 145.362 52.9182 145.694 53.2783H138.787C138.17 53.2783 137.576 53.3007 137.007 53.3457C136.485 53.3907 135.938 53.4355 135.368 53.4805C134.799 53.5255 134.276 53.5926 133.802 53.6826C134.276 53.0074 134.657 52.3772 134.941 51.792C135.226 51.2069 135.463 50.7117 135.653 50.3066C135.843 49.8115 135.986 49.3612 136.081 48.9561C136.129 48.6858 136.152 47.8979 136.152 46.5928C136.152 45.2873 136.105 43.6438 136.01 41.6631C135.962 39.6824 135.891 37.4543 135.796 34.9785C135.748 32.5026 135.653 29.981 135.511 27.415C135.416 24.8492 135.298 22.3507 135.155 19.9199C135.06 17.4891 134.965 15.3058 134.87 13.3701C134.775 11.3894 134.68 9.76829 134.585 8.50781C134.49 7.24833 134.42 6.52821 134.372 6.34766C134.277 6.07755 134.11 5.80721 133.873 5.53711C133.398 4.99696 132.591 4.47952 131.452 3.98438C133.873 3.39915 135.725 2.92654 137.007 2.56641C137.766 2.38637 138.43 2.20542 139 2.02539C139.522 1.84536 140.044 1.66538 140.566 1.48535C140.994 1.30528 141.469 1.10302 141.991 0.87793C142.513 0.607864 142.988 0.315069 143.415 0Z" stroke="black"/>
<path d="M105.958 13.9778C107.382 17.8268 107.003 16.8593 110.041 27.1458C111.257 31.2641 111.322 31.3095 111.56 33.0198C111.797 34.6854 112.106 35.9011 112.296 37.0715C112.533 38.1969 112.77 39.1198 113.008 39.8401C113.53 41.5506 114.052 42.4734 114.574 42.6086C115.001 42.5186 115.453 42.0012 115.928 41.0559C116.45 40.1105 116.924 38.9397 117.352 37.5442C117.826 36.1487 118.253 34.6404 118.633 33.0198C119.013 31.3542 119.345 29.8011 119.63 28.3606C119.915 26.9201 120.105 25.6597 120.2 24.5793C120.295 23.4996 120.295 22.8244 120.2 22.554C120.058 22.2839 119.773 21.9007 119.346 21.4055C118.966 21.0004 118.443 20.5054 117.778 19.9202C117.161 19.335 116.307 18.6366 115.215 17.8264C116.544 18.0515 117.802 18.209 118.989 18.2991C120.223 18.3441 121.315 18.3898 122.265 18.4348C123.357 18.4798 124.354 18.4798 125.256 18.4348C126.205 18.4348 127.369 18.4124 128.745 18.3674C129.932 18.3224 131.404 18.2991 133.16 18.2991C134.964 18.2991 137.076 18.2543 139.497 18.1643C137.361 18.7945 135.652 19.4024 134.37 19.9875C133.136 20.5276 132.187 21.0452 131.522 21.5403C130.715 22.0805 130.146 22.5988 129.813 23.094C129.481 23.7693 128.958 25.1871 128.246 27.3479C127.961 28.2481 127.606 29.3736 127.179 30.7239C126.751 32.0293 126.252 33.5825 125.683 35.3831C125.113 37.1837 124.473 39.2775 123.761 41.6633C123.049 44.0041 122.241 46.6825 121.339 49.6985C120.817 49.6085 120.271 49.5637 119.701 49.5637C119.179 49.5187 118.681 49.4963 118.206 49.4963H116.568C115.999 49.5414 115.381 49.5861 114.717 49.6311C114.147 49.6761 113.482 49.7442 112.723 49.8342C111.963 49.9243 111.132 50.0361 110.23 50.1711L105.958 33.7629L98.9795 50.1711L91.0039 49.969C90.007 44.8822 89.2001 40.8308 88.583 37.8147C88.0133 34.7535 87.539 32.4119 87.1592 30.7913C86.732 28.9009 86.4471 27.5731 86.3047 26.8079C86.0673 25.9976 85.711 25.2098 85.2363 24.4446C84.8565 23.8143 84.3107 23.1609 83.5986 22.4856C82.8866 21.7654 82.0082 21.1575 80.9639 20.6624C82.388 20.7524 83.6464 20.8205 84.7383 20.8655C85.8773 20.9105 86.8265 20.9552 87.5859 21.0002C88.4404 21.0453 89.2006 21.0676 89.8652 21.0676C90.5298 21.0676 91.2892 21.0453 92.1436 21.0002C92.9031 20.9552 93.829 20.8881 94.9209 20.7981C96.0601 20.6631 97.3655 20.4831 98.8369 20.2581C97.6978 20.9332 96.7725 21.5636 96.0605 22.1487C95.3959 22.6889 94.8729 23.1839 94.4932 23.634C94.066 24.1291 93.7811 24.5795 93.6387 24.9846C93.5437 25.3448 93.4494 26.0655 93.3545 27.1458C93.307 28.1809 93.2594 29.3961 93.2119 30.7913C93.2119 32.1418 93.2357 33.5829 93.2832 35.1135C93.3307 36.644 93.4021 38.0396 93.4971 39.3C93.592 40.5155 93.7339 41.5512 93.9238 42.4065C94.1137 43.2164 94.351 43.5988 94.6357 43.554C95.0155 43.2388 95.6328 42.1808 96.4873 40.3801C96.8196 39.6149 97.2236 38.6472 97.6982 37.4768C98.173 36.2614 98.7188 34.7978 99.3359 33.0872C99.953 31.3316 100.641 29.2833 101.4 26.9426C105.958 15.0581 104.961 17.0839 105.958 13.9778Z" fill="black"/>
<path d="M105.958 13.9778C107.382 17.8268 107.003 16.8593 110.041 27.1458C111.257 31.2641 111.322 31.3095 111.56 33.0198C111.797 34.6854 112.106 35.9011 112.296 37.0715C112.533 38.1969 112.77 39.1198 113.008 39.8401C113.53 41.5506 114.052 42.4734 114.574 42.6086C115.001 42.5186 115.453 42.0012 115.928 41.0559C116.45 40.1105 116.924 38.9397 117.352 37.5442C117.826 36.1487 118.253 34.6404 118.633 33.0198C119.013 31.3542 119.345 29.8011 119.63 28.3606C119.915 26.9201 120.105 25.6597 120.2 24.5793C120.295 23.4996 120.295 22.8244 120.2 22.554C120.058 22.2839 119.773 21.9007 119.346 21.4055C118.966 21.0004 118.443 20.5054 117.778 19.9202C117.161 19.335 116.307 18.6366 115.215 17.8264C116.544 18.0515 117.802 18.209 118.989 18.2991C120.223 18.3441 121.315 18.3898 122.265 18.4348C123.357 18.4798 124.354 18.4798 125.256 18.4348C126.205 18.4348 127.369 18.4124 128.745 18.3674C129.932 18.3224 131.404 18.2991 133.16 18.2991C134.964 18.2991 137.076 18.2543 139.497 18.1643C137.361 18.7945 135.652 19.4024 134.37 19.9875C133.136 20.5276 132.187 21.0452 131.522 21.5403C130.715 22.0805 130.146 22.5988 129.813 23.094C129.481 23.7693 128.958 25.1871 128.246 27.3479C127.961 28.2481 127.606 29.3736 127.179 30.7239C126.751 32.0293 126.252 33.5825 125.683 35.3831C125.113 37.1837 124.473 39.2775 123.761 41.6633C123.049 44.0041 122.241 46.6825 121.339 49.6985C120.817 49.6085 120.271 49.5637 119.701 49.5637C119.179 49.5187 118.681 49.4963 118.206 49.4963H116.568C115.999 49.5414 115.381 49.5861 114.717 49.6311C114.147 49.6761 113.482 49.7442 112.723 49.8342C111.963 49.9243 111.132 50.0361 110.23 50.1711L105.958 33.7629L98.9795 50.1711L91.0039 49.969C90.007 44.8822 89.2001 40.8308 88.583 37.8147C88.0133 34.7535 87.539 32.4119 87.1592 30.7913C86.732 28.9009 86.4471 27.5731 86.3047 26.8079C86.0673 25.9976 85.711 25.2098 85.2363 24.4446C84.8565 23.8143 84.3107 23.1609 83.5986 22.4856C82.8866 21.7654 82.0082 21.1575 80.9639 20.6624C82.388 20.7524 83.6464 20.8205 84.7383 20.8655C85.8773 20.9105 86.8265 20.9552 87.5859 21.0002C88.4404 21.0453 89.2006 21.0676 89.8652 21.0676C90.5298 21.0676 91.2892 21.0453 92.1436 21.0002C92.9031 20.9552 93.829 20.8881 94.9209 20.7981C96.0601 20.6631 97.3655 20.4831 98.8369 20.2581C97.6978 20.9332 96.7725 21.5636 96.0605 22.1487C95.3959 22.6889 94.8729 23.1839 94.4932 23.634C94.066 24.1291 93.7811 24.5795 93.6387 24.9846C93.5437 25.3448 93.4494 26.0655 93.3545 27.1458C93.307 28.1809 93.2594 29.3961 93.2119 30.7913C93.2119 32.1418 93.2357 33.5829 93.2832 35.1135C93.3307 36.644 93.4021 38.0396 93.4971 39.3C93.592 40.5155 93.7339 41.5512 93.9238 42.4065C94.1137 43.2164 94.351 43.5988 94.6357 43.554C95.0155 43.2388 95.6328 42.1808 96.4873 40.3801C96.8196 39.6149 97.2236 38.6472 97.6982 37.4768C98.173 36.2614 98.7188 34.7978 99.3359 33.0872C99.953 31.3316 100.641 29.2833 101.4 26.9426C105.958 15.0581 104.961 17.0839 105.958 13.9778Z" stroke="black"/>
<path d="M62.6631 12.8978C64.2296 12.7178 65.7253 12.7849 67.1494 13.1C68.5736 13.4151 69.9034 13.9101 71.1377 14.5853C72.4192 15.2605 73.5817 16.0037 74.626 16.8138C75.3381 17.354 75.9087 18.1417 76.3359 19.1771C76.7632 20.1675 77.0947 21.2936 77.332 22.5541C77.5693 23.8144 77.7361 25.1421 77.8311 26.5375C77.9735 27.888 78.0678 29.2164 78.1152 30.5219C78.1627 31.7821 78.1865 32.9523 78.1865 34.0326C78.234 35.068 78.3293 35.9237 78.4717 36.599C78.6616 37.5894 78.994 38.4451 79.4688 39.1654C79.9433 39.8404 80.4657 40.4252 81.0352 40.9203C81.6048 41.3705 82.1745 41.7312 82.7441 42.0013C83.3136 42.2714 83.8121 42.4737 84.2393 42.6088C84.5239 42.7437 84.7852 42.8342 85.0225 42.8793C85.4969 43.0592 85.8296 43.059 86.0195 42.8793C85.7348 43.5093 85.4736 44.0493 85.2363 44.4994C84.999 44.9496 84.8094 45.3327 84.667 45.6478C84.4772 46.0078 84.3103 46.2998 84.168 46.5248C84.0256 46.7949 83.8598 47.0429 83.6699 47.2679C83.5275 47.493 83.3379 47.741 83.1006 48.0111C82.8632 48.2812 82.626 48.5739 82.3887 48.889C81.7717 48.664 81.178 48.3935 80.6084 48.0785C80.0862 47.7634 79.6108 47.4707 79.1836 47.2006C78.6615 46.8855 78.1869 46.5703 77.7598 46.2552C77.3325 45.9402 76.9286 45.5803 76.5488 45.1752C76.2166 44.8151 75.8612 44.4318 75.4814 44.0267C75.1491 43.6216 74.8633 43.1713 74.626 42.6761C74.3411 43.2614 73.6533 44.0948 72.5615 45.1752C71.5172 46.2555 70.1404 47.2456 68.4316 48.1459C66.7227 49.0011 64.7287 49.609 62.4502 49.9691C60.219 50.3293 57.7499 50.0813 55.0439 49.226C53.8572 48.8658 52.7416 48.3484 51.6973 47.6732C50.6529 46.9529 49.7508 46.0972 48.9912 45.1068C48.2792 44.1165 47.7571 42.9912 47.4248 41.7308C47.14 40.4254 47.1638 38.985 47.4961 37.4095C47.8284 35.8339 48.4219 34.5056 49.2764 33.4252C50.1308 32.3448 51.1511 31.4666 52.3379 30.7914C53.5247 30.1161 54.8545 29.5988 56.3262 29.2386C57.7976 28.8786 59.3165 28.6305 60.8828 28.4955C62.1171 28.4505 63.3517 28.5185 64.5859 28.6986C65.6303 28.8787 66.7221 29.2162 67.8613 29.7113C69.0007 30.1615 69.9742 30.8597 70.7812 31.8051C70.7338 29.4191 70.6385 27.5277 70.4961 26.1322C70.4012 24.6918 70.3069 23.5889 70.2119 22.8236C70.022 21.9233 69.8553 21.2931 69.7129 20.933C69.4756 20.6179 69.2144 20.2579 68.9297 19.8529C68.6923 19.4478 68.3837 19.087 68.0039 18.7719C67.6242 18.4118 67.1496 18.119 66.5801 17.8939C66.0104 17.6688 65.3455 17.5794 64.5859 17.6244C63.779 17.6694 63.1378 17.8717 62.6631 18.2318C62.1885 18.5919 61.8092 19.0199 61.5244 19.515C61.2871 19.9651 61.1442 20.4602 61.0967 21.0004C61.0492 21.5405 61.0731 22.0132 61.168 22.4183C61.2629 22.6884 61.4058 22.9811 61.5957 23.2963C61.7856 23.5663 62.0467 23.8591 62.3789 24.1742C62.7112 24.4892 63.1619 24.7597 63.7314 24.9847C62.6396 25.1198 61.666 25.2326 60.8115 25.3226C59.9572 25.3676 59.2215 25.4348 58.6045 25.5248C57.8924 25.6148 57.2751 25.6819 56.7529 25.7269C56.2308 25.7719 55.6134 25.8624 54.9014 25.9974C54.2843 26.0875 53.5249 26.2003 52.623 26.3353C51.7212 26.4704 50.6769 26.6503 49.4902 26.8754C49.775 26.5603 50.0361 26.2675 50.2734 25.9974C50.5108 25.6824 50.7242 25.4119 50.9141 25.1869C51.1038 24.917 51.2936 24.6696 51.4834 24.4447C51.7208 24.1746 51.8637 23.6786 51.9111 22.9584C52.0061 22.1932 52.1957 21.3381 52.4805 20.3929C52.8128 19.4476 53.3586 18.4567 54.1182 17.4213C54.8777 16.3859 56.1124 15.4182 57.8213 14.5179C59.4827 13.6177 61.0966 13.0779 62.6631 12.8978ZM62.165 32.4799C61.3106 32.5249 60.456 32.7272 59.6016 33.0873C58.7471 33.4024 57.9869 33.875 57.3223 34.5052C56.6577 35.0905 56.088 35.7887 55.6133 36.599C55.1861 37.3642 54.9727 38.2201 54.9727 39.1654C54.9727 40.1105 55.21 40.9433 55.6846 41.6635C56.2068 42.3387 56.8717 42.9018 57.6787 43.3519C58.5332 43.8021 59.4354 44.0715 60.3848 44.1615C61.3817 44.2515 62.3552 44.1621 63.3047 43.892C64.2066 43.5768 65.0612 43.0818 65.8682 42.4066C66.6751 41.6865 67.363 40.9209 67.9326 40.1107C68.5023 39.2554 68.9062 38.422 69.1436 37.6117C69.3808 36.7567 69.4046 36.059 69.2148 35.5189C68.8351 34.3485 67.9805 33.5375 66.6514 33.0873C65.3222 32.5921 63.8265 32.3898 62.165 32.4799Z" fill="black"/>
<path d="M62.6631 12.8978C64.2296 12.7178 65.7253 12.7849 67.1494 13.1C68.5736 13.4151 69.9034 13.9101 71.1377 14.5853C72.4192 15.2605 73.5817 16.0037 74.626 16.8138C75.3381 17.354 75.9087 18.1417 76.3359 19.1771C76.7632 20.1675 77.0947 21.2936 77.332 22.5541C77.5693 23.8144 77.7361 25.1421 77.8311 26.5375C77.9735 27.888 78.0678 29.2164 78.1152 30.5219C78.1627 31.7821 78.1865 32.9523 78.1865 34.0326C78.234 35.068 78.3293 35.9237 78.4717 36.599C78.6616 37.5894 78.994 38.4451 79.4688 39.1654C79.9433 39.8404 80.4657 40.4252 81.0352 40.9203C81.6048 41.3705 82.1745 41.7312 82.7441 42.0013C83.3136 42.2714 83.8121 42.4737 84.2393 42.6088C84.5239 42.7437 84.7852 42.8342 85.0225 42.8793C85.4969 43.0592 85.8296 43.059 86.0195 42.8793C85.7348 43.5093 85.4736 44.0493 85.2363 44.4994C84.999 44.9496 84.8094 45.3327 84.667 45.6478C84.4772 46.0078 84.3103 46.2998 84.168 46.5248C84.0256 46.7949 83.8598 47.0429 83.6699 47.2679C83.5275 47.493 83.3379 47.741 83.1006 48.0111C82.8632 48.2812 82.626 48.5739 82.3887 48.889C81.7717 48.664 81.178 48.3935 80.6084 48.0785C80.0862 47.7634 79.6108 47.4707 79.1836 47.2006C78.6615 46.8855 78.1869 46.5703 77.7598 46.2552C77.3325 45.9402 76.9286 45.5803 76.5488 45.1752C76.2166 44.8151 75.8612 44.4318 75.4814 44.0267C75.1491 43.6216 74.8633 43.1713 74.626 42.6761C74.3411 43.2614 73.6533 44.0948 72.5615 45.1752C71.5172 46.2555 70.1404 47.2456 68.4316 48.1459C66.7227 49.0011 64.7287 49.609 62.4502 49.9691C60.219 50.3293 57.7499 50.0813 55.0439 49.226C53.8572 48.8658 52.7416 48.3484 51.6973 47.6732C50.6529 46.9529 49.7508 46.0972 48.9912 45.1068C48.2792 44.1165 47.7571 42.9912 47.4248 41.7308C47.14 40.4254 47.1638 38.985 47.4961 37.4095C47.8284 35.8339 48.4219 34.5056 49.2764 33.4252C50.1308 32.3448 51.1511 31.4666 52.3379 30.7914C53.5247 30.1161 54.8545 29.5988 56.3262 29.2386C57.7976 28.8786 59.3165 28.6305 60.8828 28.4955C62.1171 28.4505 63.3517 28.5185 64.5859 28.6986C65.6303 28.8787 66.7221 29.2162 67.8613 29.7113C69.0007 30.1615 69.9742 30.8597 70.7812 31.8051C70.7338 29.4191 70.6385 27.5277 70.4961 26.1322C70.4012 24.6918 70.3069 23.5889 70.2119 22.8236C70.022 21.9233 69.8553 21.2931 69.7129 20.933C69.4756 20.6179 69.2144 20.2579 68.9297 19.8529C68.6923 19.4478 68.3837 19.087 68.0039 18.7719C67.6242 18.4118 67.1496 18.119 66.5801 17.8939C66.0104 17.6688 65.3455 17.5794 64.5859 17.6244C63.779 17.6694 63.1378 17.8717 62.6631 18.2318C62.1885 18.5919 61.8092 19.0199 61.5244 19.515C61.2871 19.9651 61.1442 20.4602 61.0967 21.0004C61.0492 21.5405 61.0731 22.0132 61.168 22.4183C61.2629 22.6884 61.4058 22.9811 61.5957 23.2963C61.7856 23.5663 62.0467 23.8591 62.3789 24.1742C62.7112 24.4892 63.1619 24.7597 63.7314 24.9847C62.6396 25.1198 61.666 25.2326 60.8115 25.3226C59.9572 25.3676 59.2215 25.4348 58.6045 25.5248C57.8924 25.6148 57.2751 25.6819 56.7529 25.7269C56.2308 25.7719 55.6134 25.8624 54.9014 25.9974C54.2843 26.0875 53.5249 26.2003 52.623 26.3353C51.7212 26.4704 50.6769 26.6503 49.4902 26.8754C49.775 26.5603 50.0361 26.2675 50.2734 25.9974C50.5108 25.6824 50.7242 25.4119 50.9141 25.1869C51.1038 24.917 51.2936 24.6696 51.4834 24.4447C51.7208 24.1746 51.8637 23.6786 51.9111 22.9584C52.0061 22.1932 52.1957 21.3381 52.4805 20.3929C52.8128 19.4476 53.3586 18.4567 54.1182 17.4213C54.8777 16.3859 56.1124 15.4182 57.8213 14.5179C59.4827 13.6177 61.0966 13.0779 62.6631 12.8978ZM62.165 32.4799C61.3106 32.5249 60.456 32.7272 59.6016 33.0873C58.7471 33.4024 57.9869 33.875 57.3223 34.5052C56.6577 35.0905 56.088 35.7887 55.6133 36.599C55.1861 37.3642 54.9727 38.2201 54.9727 39.1654C54.9727 40.1105 55.21 40.9433 55.6846 41.6635C56.2068 42.3387 56.8717 42.9018 57.6787 43.3519C58.5332 43.8021 59.4354 44.0715 60.3848 44.1615C61.3817 44.2515 62.3552 44.1621 63.3047 43.892C64.2066 43.5768 65.0612 43.0818 65.8682 42.4066C66.6751 41.6865 67.363 40.9209 67.9326 40.1107C68.5023 39.2554 68.9062 38.422 69.1436 37.6117C69.3808 36.7567 69.4046 36.059 69.2148 35.5189C68.8351 34.3485 67.9805 33.5375 66.6514 33.0873C65.3222 32.5921 63.8265 32.3898 62.165 32.4799Z" stroke="black"/>
<path d="M26.9883 2.97107C28.8395 2.79103 30.4535 2.76866 31.8301 2.90369C33.2067 3.03873 34.6548 3.35384 36.1738 3.849C37.6929 4.29915 39.1171 4.92937 40.4463 5.73962C41.7754 6.50486 42.9149 7.45025 43.8643 8.57556C44.8612 9.70099 45.4785 11.007 45.7158 12.4926C45.9531 13.933 45.8112 15.4862 45.2891 17.1517C44.7669 18.7722 43.9361 20.3702 42.7969 21.9457C41.6575 23.4763 40.2324 24.8941 38.5234 26.1996C36.8145 27.505 34.9159 28.5631 32.8271 29.3734C31.1656 29.9586 29.3614 30.4089 27.415 30.724C25.7536 30.9941 23.8073 31.174 21.5762 31.264C19.3925 31.3091 17.0662 31.0844 14.5977 30.5892C14.2654 31.8947 14.0758 33.1103 14.0283 34.2357C14.0283 35.316 14.076 36.2838 14.1709 37.139C14.3133 38.1294 14.5029 39.0299 14.7402 39.8402C15.0251 40.6505 15.3814 41.5958 15.8086 42.6761C16.1883 43.5764 16.6152 44.6794 17.0898 45.9847C17.612 47.2452 18.2293 48.664 18.9414 50.2396C18.0869 50.2396 17.2562 50.262 16.4492 50.307C15.6424 50.307 14.9067 50.3294 14.2422 50.3744C13.4826 50.4194 12.7701 50.4641 12.1055 50.5092C11.3459 50.5542 10.4914 50.6446 9.54199 50.7797C8.73505 50.8697 7.71457 51.0049 6.48047 51.1849C5.29366 51.365 3.94002 51.5896 2.4209 51.8597C3.41777 50.5093 4.20085 49.2713 4.77051 48.1459C5.38765 46.9754 5.83919 45.9621 6.12402 45.1068C6.45619 44.1168 6.66969 43.2167 6.76465 42.4066C6.81212 41.7314 6.81212 40.5381 6.76465 38.8275C6.76465 37.1169 6.74083 35.136 6.69336 32.8851C6.64589 30.6344 6.5754 28.2711 6.48047 25.7953C6.38552 23.3193 6.26644 21.0001 6.12402 18.8392C5.98161 16.6336 5.81488 14.7429 5.625 13.1674C5.48259 11.5919 5.34065 10.5561 5.19824 10.0609C5.00833 9.47579 4.6758 8.8454 4.20117 8.17029C3.8214 7.58514 3.27544 6.91006 2.56348 6.1449C1.89886 5.33459 1.04439 4.4341 0 3.44373C1.80378 3.84884 3.41772 4.16396 4.8418 4.38904C6.31338 4.5691 7.54802 4.70428 8.54492 4.79431C9.73173 4.92936 10.7767 4.97409 11.6787 4.92908C12.818 4.88403 14.2424 4.72648 15.9512 4.45642C17.6599 4.18636 19.4637 3.91691 21.3623 3.64685C23.2612 3.37675 25.1369 3.15114 26.9883 2.97107ZM25.5635 8.23767C24.5192 8.28274 23.2138 8.53073 21.6475 8.98083C20.081 9.43098 18.1584 10.2412 15.8799 11.4115C15.6425 12.2218 15.452 12.9424 15.3096 13.5726C15.1672 14.2029 15.049 14.7659 14.9541 15.2611C14.8592 15.8012 14.7877 16.2964 14.7402 16.7465C14.6928 17.1966 14.6689 17.6693 14.6689 18.1644C14.6689 19.1098 14.7404 20.3253 14.8828 21.8109C15.2151 22.576 15.6182 23.2064 16.0928 23.7015C16.615 24.1967 17.1618 24.5789 17.7314 24.849C18.3484 25.119 18.9651 25.3 19.582 25.39C20.1991 25.48 20.8165 25.5248 21.4336 25.5248C22.8577 25.4798 24.3534 25.1647 25.9199 24.5795C28.0087 23.7241 29.4805 22.5086 30.335 20.933C31.1895 19.3574 31.64 17.7363 31.6875 16.0707C31.7349 14.4052 31.4263 12.8743 30.7617 11.4789C30.1446 10.0837 29.3853 9.13807 28.4834 8.64294C27.7239 8.32788 26.7502 8.19266 25.5635 8.23767Z" fill="black"/>
<path d="M26.9883 2.97107C28.8395 2.79103 30.4535 2.76866 31.8301 2.90369C33.2067 3.03873 34.6548 3.35384 36.1738 3.849C37.6929 4.29915 39.1171 4.92937 40.4463 5.73962C41.7754 6.50486 42.9149 7.45025 43.8643 8.57556C44.8612 9.70099 45.4785 11.007 45.7158 12.4926C45.9531 13.933 45.8112 15.4862 45.2891 17.1517C44.7669 18.7722 43.9361 20.3702 42.7969 21.9457C41.6575 23.4763 40.2324 24.8941 38.5234 26.1996C36.8145 27.505 34.9159 28.5631 32.8271 29.3734C31.1656 29.9586 29.3614 30.4089 27.415 30.724C25.7536 30.9941 23.8073 31.174 21.5762 31.264C19.3925 31.3091 17.0662 31.0844 14.5977 30.5892C14.2654 31.8947 14.0758 33.1103 14.0283 34.2357C14.0283 35.316 14.076 36.2838 14.1709 37.139C14.3133 38.1294 14.5029 39.0299 14.7402 39.8402C15.0251 40.6505 15.3814 41.5958 15.8086 42.6761C16.1883 43.5764 16.6152 44.6794 17.0898 45.9847C17.612 47.2452 18.2293 48.664 18.9414 50.2396C18.0869 50.2396 17.2562 50.262 16.4492 50.307C15.6424 50.307 14.9067 50.3294 14.2422 50.3744C13.4826 50.4194 12.7701 50.4641 12.1055 50.5092C11.3459 50.5542 10.4914 50.6446 9.54199 50.7797C8.73505 50.8697 7.71457 51.0049 6.48047 51.1849C5.29366 51.365 3.94002 51.5896 2.4209 51.8597C3.41777 50.5093 4.20085 49.2713 4.77051 48.1459C5.38765 46.9754 5.83919 45.9621 6.12402 45.1068C6.45619 44.1168 6.66969 43.2167 6.76465 42.4066C6.81212 41.7314 6.81212 40.5381 6.76465 38.8275C6.76465 37.1169 6.74083 35.136 6.69336 32.8851C6.64589 30.6344 6.5754 28.2711 6.48047 25.7953C6.38552 23.3193 6.26644 21.0001 6.12402 18.8392C5.98161 16.6336 5.81488 14.7429 5.625 13.1674C5.48259 11.5919 5.34065 10.5561 5.19824 10.0609C5.00833 9.47579 4.6758 8.8454 4.20117 8.17029C3.8214 7.58514 3.27544 6.91006 2.56348 6.1449C1.89886 5.33459 1.04439 4.4341 0 3.44373C1.80378 3.84884 3.41772 4.16396 4.8418 4.38904C6.31338 4.5691 7.54802 4.70428 8.54492 4.79431C9.73173 4.92936 10.7767 4.97409 11.6787 4.92908C12.818 4.88403 14.2424 4.72648 15.9512 4.45642C17.6599 4.18636 19.4637 3.91691 21.3623 3.64685C23.2612 3.37675 25.1369 3.15114 26.9883 2.97107ZM25.5635 8.23767C24.5192 8.28274 23.2138 8.53073 21.6475 8.98083C20.081 9.43098 18.1584 10.2412 15.8799 11.4115C15.6425 12.2218 15.452 12.9424 15.3096 13.5726C15.1672 14.2029 15.049 14.7659 14.9541 15.2611C14.8592 15.8012 14.7877 16.2964 14.7402 16.7465C14.6928 17.1966 14.6689 17.6693 14.6689 18.1644C14.6689 19.1098 14.7404 20.3253 14.8828 21.8109C15.2151 22.576 15.6182 23.2064 16.0928 23.7015C16.615 24.1967 17.1618 24.5789 17.7314 24.849C18.3484 25.119 18.9651 25.3 19.582 25.39C20.1991 25.48 20.8165 25.5248 21.4336 25.5248C22.8577 25.4798 24.3534 25.1647 25.9199 24.5795C28.0087 23.7241 29.4805 22.5086 30.335 20.933C31.1895 19.3574 31.64 17.7363 31.6875 16.0707C31.7349 14.4052 31.4263 12.8743 30.7617 11.4789C30.1446 10.0837 29.3853 9.13807 28.4834 8.64294C27.7239 8.32788 26.7502 8.19266 25.5635 8.23767Z" stroke="black"/>
<path d="M99.2774 7.76497C99.4785 9.08526 102.566 10.965 103.706 11.3706C105.857 12.7608 107.189 11.8119 109.406 10.5901C112.092 9.10982 115.41 6.27942 110.552 5.37879C105.875 4.51153 99.0262 6.1146 99.2774 7.76497Z" fill="black"/>
<path d="M99.9784 7.78945C100.132 8.79547 102.841 10.1789 103.847 10.4692C105.733 11.4946 106.936 10.7459 108.931 9.77299C111.348 8.59431 114.354 6.37226 110.052 5.76831C105.909 5.18675 99.787 6.53192 99.9784 7.78945Z" fill="black"/>
<path d="M125.569 4.17631L115.738 6.42569L125.876 5.44168L125.569 4.17631Z" fill="black"/>
<path d="M124.994 10.2987L114.978 8.97482L124.791 11.5828L124.994 10.2987Z" fill="black"/>
<path d="M86.0661 4.89653L95.8964 7.1459L85.7588 6.1619L86.0661 4.89653Z" fill="black"/>
<path d="M86.6408 11.0191L96.6564 9.69516L86.8439 12.3032L86.6408 11.0191Z" fill="black"/>
<path d="M152.196 7.85547C151.056 7.85547 146.499 16.47 146.879 16.8445C147.258 17.219 157.133 17.5792 157.513 17.219C157.893 16.8589 153.335 7.85547 152.196 7.85547Z" fill="black"/>
<path d="M176.881 7.85547C175.828 7.85547 171.614 16.3352 171.965 16.7039C172.316 17.0726 181.447 17.4271 181.798 17.0726C182.149 16.7181 177.935 7.85547 176.881 7.85547Z" fill="black"/>
</svg>
