<svg width="73" height="73" viewBox="0 0 73 73" fill="none" xmlns="http://www.w3.org/2000/svg">
<path d="M67.1667 41.3333H41.3333V67.1667C41.3333 68.5369 40.789 69.8511 39.8201 70.82C38.8511 71.789 37.537 72.3333 36.1667 72.3333C34.7964 72.3333 33.4822 71.789 32.5133 70.82C31.5443 69.8511 31 68.5369 31 67.1667V41.3333H5.16667C3.79638 41.3333 2.48222 40.789 1.51328 39.82C0.544345 38.8511 0 37.5369 0 36.1667C0 34.7964 0.544345 33.4822 1.51328 32.5133C2.48222 31.5443 3.79638 31 5.16667 31H31V5.16667C31 3.79638 31.5443 2.48222 32.5133 1.51328C33.4822 0.544342 34.7964 0 36.1667 0C37.537 0 38.8511 0.544342 39.8201 1.51328C40.789 2.48222 41.3333 3.79638 41.3333 5.16667V31H67.1667C68.537 31 69.8511 31.5443 70.8201 32.5133C71.789 33.4822 72.3333 34.7964 72.3333 36.1667C72.3333 37.5369 71.789 38.8511 70.8201 39.82C69.8511 40.789 68.537 41.3333 67.1667 41.3333Z" fill="#8CC5EA"/>
</svg>
