<svg width="28" height="28" viewBox="0 0 28 28" fill="none" xmlns="http://www.w3.org/2000/svg">
<path d="M15.1248 14.2709L10.854 18.5417C10.7746 18.6211 10.6804 18.684 10.5767 18.727C10.473 18.7699 10.3619 18.792 10.2496 18.792C10.1374 18.792 10.0263 18.7699 9.92258 18.727C9.81889 18.684 9.72468 18.6211 9.64532 18.5417C9.56596 18.4624 9.503 18.3681 9.46005 18.2645C9.41711 18.1608 9.395 18.0496 9.395 17.9374C9.395 17.8252 9.41711 17.714 9.46005 17.6103C9.503 17.5067 9.56596 17.4124 9.64532 17.3331L12.4587 14.5207H2.56217C2.33563 14.5207 2.11837 14.4308 1.95819 14.2706C1.798 14.1104 1.70801 13.8931 1.70801 13.6666C1.70801 13.44 1.798 13.2228 1.95819 13.0626C2.11837 12.9024 2.33563 12.8124 2.56217 12.8124H12.4587L9.64532 10.0001C9.48504 9.83981 9.395 9.62243 9.395 9.39577C9.395 9.1691 9.48504 8.95172 9.64532 8.79145C9.80559 8.63117 10.023 8.54113 10.2496 8.54113C10.4763 8.54113 10.6937 8.63117 10.854 8.79145L15.1248 13.0623C15.2042 13.1416 15.2672 13.2358 15.3102 13.3395C15.3532 13.4432 15.3753 13.5543 15.3753 13.6666C15.3753 13.7788 15.3532 13.89 15.3102 13.9937C15.2672 14.0974 15.2042 14.1916 15.1248 14.2709ZM21.3538 3.41663H14.5205C14.2939 3.41663 14.0767 3.50662 13.9165 3.6668C13.7563 3.82699 13.6663 4.04425 13.6663 4.27079C13.6663 4.49733 13.7563 4.71459 13.9165 4.87477C14.0767 5.03496 14.2939 5.12495 14.5205 5.12495H20.4996V22.2082H14.5205C14.2939 22.2082 14.0767 22.2982 13.9165 22.4584C13.7563 22.6186 13.6663 22.8358 13.6663 23.0624C13.6663 23.2889 13.7563 23.5062 13.9165 23.6664C14.0767 23.8265 14.2939 23.9165 14.5205 23.9165H21.3538C21.5803 23.9165 21.7976 23.8265 21.9577 23.6664C22.1179 23.5062 22.2079 23.2889 22.2079 23.0624V4.27079C22.2079 4.04425 22.1179 3.82699 21.9577 3.6668C21.7976 3.50662 21.5803 3.41663 21.3538 3.41663Z" fill="black"/>
</svg>
